<?xml version="1.0" encoding="UTF-8" standalone="no"?>
<!-- Generator: Adobe Illustrator 16.0.4, SVG Export Plug-In . SVG Version: 6.00 Build 0)  -->

<svg
   xmlns:dc="http://purl.org/dc/elements/1.1/"
   xmlns:cc="http://creativecommons.org/ns#"
   xmlns:rdf="http://www.w3.org/1999/02/22-rdf-syntax-ns#"
   xmlns:svg="http://www.w3.org/2000/svg"
   xmlns="http://www.w3.org/2000/svg"
   xmlns:xlink="http://www.w3.org/1999/xlink"
   xmlns:sodipodi="http://sodipodi.sourceforge.net/DTD/sodipodi-0.dtd"
   xmlns:inkscape="http://www.inkscape.org/namespaces/inkscape"
   version="1.1"
   id="Capa_1"
   x="0px"
   y="0px"
   width="166.7991"
   height="54.551041"
   viewBox="0 0 166.79911 54.551041"
   enable-background="new 0 0 64 64"
   xml:space="preserve"
   inkscape:version="0.91 r13725"
   sodipodi:docname="figures.svg"
   inkscape:export-filename="/Users/mdavezac/workspace/lectures/training/research-computing-with-cpp/session06/figures/syncR.png"
   inkscape:export-xdpi="115.48817"
   inkscape:export-ydpi="115.48817"><metadata
     id="metadata3347"><rdf:RDF><cc:Work
         rdf:about=""><dc:format>image/svg+xml</dc:format><dc:type
           rdf:resource="http://purl.org/dc/dcmitype/StillImage" /><dc:title></dc:title></cc:Work></rdf:RDF></metadata><defs
     id="defs3345"><filter
       inkscape:collect="always"
       style="color-interpolation-filters:sRGB"
       id="filter5917"><feBlend
         inkscape:collect="always"
         mode="multiply"
         in2="BackgroundImage"
         id="feBlend5919" /></filter></defs><sodipodi:namedview
     pagecolor="#ffffff"
     bordercolor="#666666"
     borderopacity="1"
     objecttolerance="10"
     gridtolerance="10"
     guidetolerance="10"
     inkscape:pageopacity="0"
     inkscape:pageshadow="2"
     inkscape:window-width="1440"
     inkscape:window-height="855"
     id="namedview3343"
     showgrid="false"
     inkscape:zoom="4.0022244"
     inkscape:cx="91.544197"
     inkscape:cy="22.060505"
     inkscape:window-x="0"
     inkscape:window-y="0"
     inkscape:window-maximized="0"
     inkscape:current-layer="g3855"
     fit-margin-top="0"
     fit-margin-left="0"
     fit-margin-right="0"
     fit-margin-bottom="0" /><g
     inkscape:groupmode="layer"
     id="layer11"
     inkscape:label="runner"
     style="display:none"
     sodipodi:insensitive="true"
     transform="translate(53.72633,-5.2272902)"><g
       id="g5325"><path
         style="display:inline;fill:#008000"
         id="path5140"
         d="m -38.690422,18.252192 c 0,-2.611023 -2.115666,-4.726692 -4.726688,-4.726692 -2.611031,0 -4.726696,2.115669 -4.726696,4.726692 0,2.611025 2.117549,4.726693 4.726696,4.726693 2.609138,0 4.726688,-2.115668 4.726688,-4.726693 z m 12.478469,20.797446 2.457881,3.405108 8.88618,0 c 1.323475,0 2.646948,1.134408 2.646948,2.457881 0,1.51065 -1.136297,2.645056 -2.646948,2.645056 l -10.39872,0 c -0.945341,0 -1.701611,-0.376245 -2.268815,-1.321581 l -2.457879,-3.590397 c 0.189067,-0.0038 3.592286,-2.270703 3.781353,-3.596067 z m -25.902269,-5.104828 6.995494,-1.701609 2.079749,-6.428303 c 0.04538,-0.139908 0.134232,-0.242005 0.202304,-0.363008 0.107766,-0.321416 0.32519,-0.648503 0.743043,-0.960463 l 3.113935,-2.077855 c 0.23444,-0.243899 0.504816,-0.451872 0.854597,-0.569093 l 7.186455,-2.457881 c 0.565312,-0.189068 1.321583,-0.189068 1.701609,0 l 8.12991,4.348559 c 1.134407,0.567201 1.512542,1.890675 0.945338,2.836011 -0.378135,0.756272 -0.945338,1.134408 -1.701608,1.134408 -0.378135,0 -0.75627,0 -1.134406,-0.189067 l -7.37364,-3.781352 -4.356121,1.537119 5.679595,8.672534 c 1.068233,1.833957 1.614638,3.66035 0.499138,5.093483 -0.200412,0.374354 -0.463215,0.720349 -0.879165,0.956683 l -7.182677,5.293896 4.346662,9.642451 c 0.567204,1.321583 0,2.836015 -1.323474,3.405109 -0.376245,0.189068 -0.756266,0.189068 -1.134407,0.189068 -0.945337,0 -1.890675,-0.569093 -2.266922,-1.514432 l -5.104818,-11.720306 c -0.567216,-0.945338 -0.19096,-2.268812 0.754378,-3.025083 l 5.620968,-4.098987 -4.539506,-7.366077 -1.268644,3.900466 c -0.190959,0.756271 -0.756272,1.323474 -1.514428,1.512542 l -8.129915,2.079744 -0.19096,0 c -1.134403,0.190958 -2.07975,-0.567204 -2.266913,-1.699719 -0.376256,-1.325364 0.378123,-2.45977 1.514429,-2.648838 z"
         inkscape:connector-curvature="0" /><text
         transform="matrix(0.85716731,-0.51503806,0.51503806,0.85716731,0,0)"
         sodipodi:linespacing="125%"
         id="text4823-2-3"
         y="13.365324"
         x="-50.423462"
         style="font-style:normal;font-weight:normal;font-size:12.5px;line-height:125%;font-family:Sans;letter-spacing:0px;word-spacing:0px;display:inline;fill:#ececec;fill-opacity:1;stroke:none;stroke-width:1px;stroke-linecap:butt;stroke-linejoin:miter;stroke-opacity:1"
         xml:space="preserve"><tspan
           y="13.365324"
           x="-50.423462"
           id="tspan4825-3-3"
           sodipodi:role="line">0</tspan></text>
</g></g><g
     inkscape:groupmode="layer"
     id="layer7"
     inkscape:label="porter left"
     style="display:none"
     sodipodi:insensitive="true"
     transform="translate(53.72633,-5.2272902)"><g
       id="g5496"><rect
         style="display:inline;fill:#ececec;fill-opacity:1;stroke:#89a0ab;stroke-width:0;stroke-miterlimit:13.30000019;stroke-dasharray:none;stroke-opacity:1"
         id="rect5493"
         width="4.242651"
         height="15.202806"
         x="29.657295"
         y="24.755568" /><g
         transform="translate(-18,0)"
         id="g3727"><path
           inkscape:connector-curvature="0"
           style="fill:#803300"
           d="m 49.533203,23.728516 c -2.092025,0.119838 -3.208705,1.81183 -3.326172,3.732422 -0.01349,0.233334 -0.02242,0.465893 -0.03516,0.699218 -2.015045,1.065055 -4.239187,1.797205 -6.458984,1.951172 -0.164282,-0.01499 -0.247569,-0.03902 -0.478516,-0.06836 -2.344383,-0.298404 -3.451872,2.549135 -2.255859,3.855469 L 27.341793,52.11914 c -0.12222,-0.0405 -0.246064,-0.07809 -0.373047,-0.107422 -0.729349,-0.17613 -1.457991,-0.127187 -2.123047,0.08789 L 10.80859,45.58789 10.507808,46.859374 23.453121,52.89453 c -0.588889,0.517449 -1.031229,1.216116 -1.226563,2.035157 -0.501576,2.113444 0.807263,4.239014 2.919922,4.742187 2.115049,0.499998 4.243348,-0.809216 4.744141,-2.921875 C 30.25014,55.23971 29.678906,53.724998 28.55273,52.798827 L 37.886715,34.42578 c 0.114278,0.0325 0.227274,0.06539 0.357422,0.08203 0.70078,0.08889 1.155728,0.139232 1.865234,0.144532 l -0.0039,-0.05469 c 1.998369,-0.153183 3.989985,-0.615253 5.882812,-1.339844 -0.05402,2.734878 -0.04696,1.815118 -0.03906,4.550782 l 0.01758,0 c -0.01662,0.3365 -0.03218,0.67558 -0.04883,1.013672 -5.257849,4.041199 -8.68321,10.56271 -9.261719,17.283203 -0.252387,2.941217 4.32343,2.918989 4.574219,0 0.346821,-4.028498 2.19152,-8.641271 4.9375,-11.478516 -0.0032,0.183321 0.01186,0.376538 0.05469,0.578125 0.835695,3.965007 3.953632,7.930215 4.972656,11.851563 0.741258,2.853131 5.151408,1.644624 4.410157,-1.214844 -1.011097,-3.893585 -3.619505,-7.823386 -4.447266,-11.755859 0.448401,-0.922204 0.401788,-1.838485 0.962891,-2.701172 0.0056,-0.0048 0.0068,-0.01303 0.0098,-0.01953 0.474587,-0.545232 0.792208,-1.270303 0.835938,-2.171875 0.03014,-0.580938 0.05816,-1.53979 0.08594,-2.11914 l -0.04492,0 c -0.01428,-4.359447 -0.018,-5.472002 0.259766,-10.019531 0.117461,-1.92616 -1.984405,-3.426195 -3.734375,-3.326172 z m -1.806641,1.351562 0.824219,0 1.210938,2.53125 1.171875,-2.53125 0.839844,0 0,4.544922 -0.603516,0 0,-3.916016 -1.263672,2.664063 -0.361328,0 -1.253906,-2.664063 0,3.916016 -0.564454,0 0,-4.544922 z m 0.53711,5.03125 1.232422,0 c 0.272623,0 0.50415,0.02352 0.693359,0.07031 0.189209,0.04476 0.357422,0.117183 0.503906,0.214843 0.172933,0.115967 0.306801,0.260661 0.400391,0.433594 0.09562,0.172933 0.142578,0.391764 0.142578,0.65625 0,0.201416 -0.03621,0.387614 -0.107422,0.560547 -0.06917,0.170898 -0.166829,0.319173 -0.292968,0.445313 -0.156657,0.156655 -0.341065,0.274165 -0.554688,0.353515 -0.213623,0.07731 -0.483073,0.117188 -0.808594,0.117188 l -0.605468,0 0,1.693359 -0.603516,0 0,-4.544922 z m 0.603516,0.519531 0,1.816407 0.509765,0 c 0.244141,0 0.443115,-0.02173 0.595703,-0.06445 0.152588,-0.04476 0.277427,-0.115317 0.373047,-0.210937 0.09562,-0.09766 0.162512,-0.200765 0.201172,-0.308594 0.04069,-0.107829 0.06055,-0.229004 0.06055,-0.363281 0,-0.156657 -0.0271,-0.292236 -0.08203,-0.408203 -0.05493,-0.115967 -0.138103,-0.209963 -0.25,-0.283203 -0.09766,-0.06307 -0.209799,-0.108316 -0.335938,-0.134766 -0.124105,-0.02848 -0.281413,-0.04297 -0.472656,-0.04297 l -0.599609,0 z m -0.01367,4.511719 1.792968,0 0,0.464844 -0.59375,0 0,3.615234 0.59375,0 0,0.464844 -1.792968,0 0,-0.464844 0.59375,0 0,-3.615234 -0.59375,0 0,-0.464844 z"
           id="path3712" /><path
           id="path3714"
           d="m 49.603888,15.778708 c -1.898382,0 -3.437244,1.538857 -3.437244,3.437238 0,1.898374 1.538862,3.437243 3.437244,3.437243 1.898378,0 3.437234,-1.538869 3.437234,-3.437243 0,-1.898381 -1.538856,-3.437238 -3.437234,-3.437238 z"
           style="fill:#803300"
           inkscape:connector-curvature="0" /></g></g></g><g
     inkscape:groupmode="layer"
     id="layer4"
     inkscape:label="porter right"
     style="display:none"
     transform="translate(53.72633,-5.2272902)"
     sodipodi:insensitive="true"><rect
       style="display:inline;fill:#ececec;fill-opacity:1;stroke:#89a0ab;stroke-width:0;stroke-miterlimit:13.30000019;stroke-dasharray:none;stroke-opacity:1"
       id="rect3767-5"
       width="4.242651"
       height="15.202806"
       x="34.407295"
       y="24.755568" /><g
       id="g3493"><rect
         y="24.7642"
         x="34.468006"
         height="15.194346"
         width="4.2402835"
         id="rect3491"
         style="fill:#ffffff;fill-opacity:1;stroke:none;stroke-width:0.2;stroke-miterlimit:4;stroke-dasharray:none;stroke-opacity:1" /><g
         transform="translate(20,0)"
         inkscape:export-ydpi="98.989334"
         inkscape:export-xdpi="98.989334"
         id="g3737"><path
           inkscape:connector-curvature="0"
           style="fill:#803300"
           d="m 16.662109,23.728516 c -1.74997,-0.100023 -3.849882,1.400012 -3.732421,3.326172 0.277768,4.547529 0.274047,5.660084 0.259765,10.019531 l -0.04492,0 c 0.02778,0.57935 0.05384,1.538202 0.08399,2.11914 0.04373,0.901572 0.36135,1.626643 0.835937,2.171875 0.003,0.0065 0.0042,0.01476 0.0098,0.01953 0.561103,0.862687 0.516442,1.778968 0.964843,2.701172 -0.827761,3.932473 -3.438121,7.862274 -4.449218,11.755859 -0.7412516,2.859468 3.670852,4.067975 4.412109,1.214844 1.019025,-3.921348 4.136961,-7.886556 4.972656,-11.851563 0.04283,-0.201587 0.05787,-0.394804 0.05469,-0.578125 2.74598,2.837245 4.590679,7.450018 4.9375,11.478516 0.250789,2.918989 4.826606,2.941217 4.574219,0 C 28.96255,49.384974 25.537189,42.863463 20.27934,38.822264 20.26269,38.484172 20.24518,38.145092 20.22856,37.808592 l 0.01758,0 c 0.0079,-2.735664 0.01496,-1.815904 -0.03906,-4.550782 1.892827,0.724591 3.884444,1.186661 5.882813,1.339844 l -0.002,0.05469 c 0.709506,-0.0053 1.164454,-0.05564 1.865234,-0.144532 0.130148,-0.01664 0.243144,-0.04953 0.357422,-0.08203 l 9.333984,18.373047 c -1.126176,0.926171 -1.697409,2.440883 -1.33789,3.951172 0.500793,2.112659 2.629091,3.421873 4.74414,2.921875 2.112659,-0.503173 3.421498,-2.628743 2.919922,-4.742187 -0.195334,-0.819041 -0.637673,-1.517708 -1.226562,-2.035157 L 55.689455,46.859376 55.386721,45.587892 41.351564,52.09961 c -0.665055,-0.215077 -1.393697,-0.26402 -2.123046,-0.08789 -0.126983,0.02933 -0.250827,0.06692 -0.373047,0.107422 L 29.216797,33.898438 c 1.196013,-1.306334 0.09048,-4.153873 -2.253906,-3.855469 -0.230947,0.02934 -0.314234,0.05337 -0.478516,0.06836 -2.219797,-0.153967 -4.445893,-0.886117 -6.460937,-1.951172 -0.01274,-0.233325 -0.02167,-0.465884 -0.03516,-0.699218 -0.117467,-1.920592 -1.234147,-3.612584 -3.326172,-3.732422 z m -2.185547,1.226562 0.824219,0 1.210938,2.53125 1.171875,-2.53125 0.839844,0 0,4.544922 -0.603516,0 0,-3.916016 -1.263672,2.664063 -0.361328,0 -1.253906,-2.664063 0,3.916016 -0.564454,0 0,-4.544922 z m 0.53711,5.03125 1.232422,0 c 0.272623,0 0.50415,0.02352 0.693359,0.07031 0.189209,0.04476 0.357422,0.117183 0.503906,0.214843 0.172933,0.115967 0.306801,0.260661 0.400391,0.433594 0.09562,0.172933 0.142578,0.391764 0.142578,0.65625 0,0.201416 -0.03621,0.387614 -0.107422,0.560547 -0.06917,0.170898 -0.16683,0.319173 -0.292968,0.445313 -0.156657,0.156655 -0.341065,0.274165 -0.554688,0.353515 -0.213623,0.07731 -0.483073,0.117188 -0.808594,0.117188 l -0.605468,0 0,1.693359 -0.603516,0 0,-4.544922 z m 0.603516,0.519531 0,1.816407 0.509765,0 c 0.244141,0 0.443115,-0.02173 0.595703,-0.06445 0.152588,-0.04476 0.277427,-0.115317 0.373047,-0.210937 0.09562,-0.09766 0.162512,-0.200765 0.201172,-0.308594 0.04069,-0.107829 0.06055,-0.229004 0.06055,-0.363281 0,-0.156657 -0.0271,-0.292236 -0.08203,-0.408203 -0.05493,-0.115967 -0.138103,-0.209963 -0.25,-0.283203 -0.09766,-0.06307 -0.209799,-0.108316 -0.335938,-0.134766 -0.124105,-0.02848 -0.281413,-0.04297 -0.472656,-0.04297 l -0.599609,0 z m -0.01367,4.511719 1.792968,0 0,0.464844 -0.59375,0 0,3.615234 0.59375,0 0,0.464844 -1.792968,0 0,-0.464844 0.59375,0 0,-3.615234 -0.59375,0 0,-0.464844 z"
           id="path3558" /><path
           inkscape:connector-curvature="0"
           style="fill:#803300"
           d="m 16.592518,15.778708 c 1.898382,0 3.437244,1.538857 3.437244,3.437238 0,1.898374 -1.538862,3.437243 -3.437244,3.437243 -1.898378,0 -3.437234,-1.538869 -3.437234,-3.437243 0,-1.898381 1.538856,-3.437238 3.437234,-3.437238 z"
           id="path3525" /></g></g></g><g
     style="display:none"
     inkscape:label="transit"
     id="g5422"
     inkscape:groupmode="layer"
     sodipodi:insensitive="true"
     transform="translate(53.72633,-5.2272902)"><g
       transform="translate(-1.0978725,0)"
       inkscape:export-ydpi="98.989334"
       inkscape:export-xdpi="98.989334"
       id="g5424"><rect
         style="display:inline;fill:#ececec;fill-opacity:1;stroke:#89a0ab;stroke-width:0;stroke-miterlimit:13.30000019;stroke-dasharray:none;stroke-opacity:1"
         id="rect5426"
         width="4.242651"
         height="15.202806"
         x="14.407294"
         y="24.755568" /><g
         id="g5428"
         inkscape:export-xdpi="98.989334"
         inkscape:export-ydpi="98.989334"><path
           id="path5430"
           d="m 16.662109,23.728516 c -1.74997,-0.100023 -3.849882,1.400012 -3.732421,3.326172 0.277768,4.547529 0.274047,5.660084 0.259765,10.019531 l -0.04492,0 c 0.02778,0.57935 0.05384,1.538202 0.08399,2.11914 0.04373,0.901572 0.36135,1.626643 0.835937,2.171875 0.003,0.0065 0.0042,0.01476 0.0098,0.01953 0.561103,0.862687 0.516442,1.778968 0.964843,2.701172 -0.827761,3.932473 -3.438121,7.862274 -4.449218,11.755859 -0.7412516,2.859468 3.670852,4.067975 4.412109,1.214844 1.019025,-3.921348 4.136961,-7.886556 4.972656,-11.851563 0.04283,-0.201587 0.05787,-0.394804 0.05469,-0.578125 2.74598,2.837245 4.590679,7.450018 4.9375,11.478516 0.250789,2.918989 4.826606,2.941217 4.574219,0 C 28.96255,49.384974 25.537189,42.863463 20.27934,38.822264 20.26269,38.484172 20.24518,38.145092 20.22856,37.808592 l 0.01758,0 c 0.0079,-2.735664 0.01496,-1.815904 -0.03906,-4.550782 1.892827,0.724591 3.884444,1.186661 5.882813,1.339844 l -0.002,0.05469 c 0.709506,-0.0053 1.164454,-0.05564 1.865234,-0.144532 0.130148,-0.01664 0.243144,-0.04953 0.357422,-0.08203 l 9.333984,18.373047 c -1.126176,0.926171 -1.697409,2.440883 -1.33789,3.951172 0.500793,2.112659 2.629091,3.421873 4.74414,2.921875 2.112659,-0.503173 3.421498,-2.628743 2.919922,-4.742187 -0.195334,-0.819041 -0.637673,-1.517708 -1.226562,-2.035157 L 55.689455,46.859376 55.386721,45.587892 41.351564,52.09961 c -0.665055,-0.215077 -1.393697,-0.26402 -2.123046,-0.08789 -0.126983,0.02933 -0.250827,0.06692 -0.373047,0.107422 L 29.216797,33.898438 c 1.196013,-1.306334 0.09048,-4.153873 -2.253906,-3.855469 -0.230947,0.02934 -0.314234,0.05337 -0.478516,0.06836 -2.219797,-0.153967 -4.445893,-0.886117 -6.460937,-1.951172 -0.01274,-0.233325 -0.02167,-0.465884 -0.03516,-0.699218 -0.117467,-1.920592 -1.234147,-3.612584 -3.326172,-3.732422 z m -2.185547,1.226562 0.824219,0 1.210938,2.53125 1.171875,-2.53125 0.839844,0 0,4.544922 -0.603516,0 0,-3.916016 -1.263672,2.664063 -0.361328,0 -1.253906,-2.664063 0,3.916016 -0.564454,0 0,-4.544922 z m 0.53711,5.03125 1.232422,0 c 0.272623,0 0.50415,0.02352 0.693359,0.07031 0.189209,0.04476 0.357422,0.117183 0.503906,0.214843 0.172933,0.115967 0.306801,0.260661 0.400391,0.433594 0.09562,0.172933 0.142578,0.391764 0.142578,0.65625 0,0.201416 -0.03621,0.387614 -0.107422,0.560547 -0.06917,0.170898 -0.16683,0.319173 -0.292968,0.445313 -0.156657,0.156655 -0.341065,0.274165 -0.554688,0.353515 -0.213623,0.07731 -0.483073,0.117188 -0.808594,0.117188 l -0.605468,0 0,1.693359 -0.603516,0 0,-4.544922 z m 0.603516,0.519531 0,1.816407 0.509765,0 c 0.244141,0 0.443115,-0.02173 0.595703,-0.06445 0.152588,-0.04476 0.277427,-0.115317 0.373047,-0.210937 0.09562,-0.09766 0.162512,-0.200765 0.201172,-0.308594 0.04069,-0.107829 0.06055,-0.229004 0.06055,-0.363281 0,-0.156657 -0.0271,-0.292236 -0.08203,-0.408203 -0.05493,-0.115967 -0.138103,-0.209963 -0.25,-0.283203 -0.09766,-0.06307 -0.209799,-0.108316 -0.335938,-0.134766 -0.124105,-0.02848 -0.281413,-0.04297 -0.472656,-0.04297 l -0.599609,0 z m -0.01367,4.511719 1.792968,0 0,0.464844 -0.59375,0 0,3.615234 0.59375,0 0,0.464844 -1.792968,0 0,-0.464844 0.59375,0 0,-3.615234 -0.59375,0 0,-0.464844 z"
           style="fill:#803300"
           inkscape:connector-curvature="0" /><path
           id="path5432"
           d="m 16.592518,15.778708 c 1.898382,0 3.437244,1.538857 3.437244,3.437238 0,1.898374 -1.538862,3.437243 -3.437244,3.437243 -1.898378,0 -3.437234,-1.538869 -3.437234,-3.437243 0,-1.898381 1.538856,-3.437238 3.437234,-3.437238 z"
           style="fill:#803300"
           inkscape:connector-curvature="0" /></g></g><g
       id="g3840"><path
         inkscape:connector-curvature="0"
         style="fill:#ff6600"
         d="m 48.303864,47.105031 -9.34189,4.521345 -3.608665,-7.456215 9.341893,-4.521344 3.608662,7.456214 z"
         id="path3706-5" /><path
         inkscape:connector-curvature="0"
         style="fill:#ff6600"
         d="M 46.289625,28.373625 54.005351,44.316987 49.3348,46.577266 41.618276,30.634698 46.289625,28.373625 Z"
         id="path3708-0" /><path
         inkscape:connector-curvature="0"
         style="fill:#ff6600"
         d="m 40.58654,31.16087 3.609462,7.456211 -9.341889,4.521352 -3.609463,-7.455424 9.34189,-4.522139 z"
         id="path3710-2" /></g></g><g
     inkscape:groupmode="layer"
     id="layer10"
     inkscape:label="many procs"
     style="display:none"
     sodipodi:insensitive="true"
     transform="translate(53.72633,-5.2272902)"><g
       id="g5030"
       transform="translate(5.7220459e-6,0)"><g
         id="g5021"><path
           style="fill:#0000ff;fill-opacity:1;stroke:#89a0ab;stroke-width:0;stroke-miterlimit:13.30000019;stroke-dasharray:none;stroke-opacity:1"
           d="m 8.4507104,6.7288058 c -0.5835,0.0065 -1.165297,0.07313 -1.716797,0.203125 -7.493,0.878 -9.9252812,9.5510622 -9.2382812,16.1640622 0.298,2.859 4.8049062,2.889 4.5039062,0 -0.25,-2.41 -0.1442812,-6.045859 1.136719,-8.630859 l 0,9.423828 c 0,0.111 0.01063,0.215265 0.01563,0.322266 -0.003,0.051 -0.01367,0.09448 -0.01367,0.146484 0,7.479 -0.01327,14.954734 -0.322266,22.427734 -0.1370007,3.322 5.014391,3.309 5.150391,0 0.242,-5.857 0.302406,-11.717125 0.316406,-17.578125 0.244,0.016 0.488422,0.0159 0.732422,0.002 0.015,5.861 0.07445,11.721172 0.314453,17.576172 0.137,3.309 5.2864376,3.322 5.1484376,0 -0.309,-7.473 -0.318361,-14.948734 -0.31836,-22.427734 0,-0.232 -0.03111,-0.443485 -0.07813,-0.646484 -0.007,-3.247 -0.131749,-6.497188 -0.09375,-9.742188 1.534,2.597 1.674203,6.558 1.408203,9.125 -0.302,2.887 4.205907,2.858 4.503907,0 0.703,-6.75 -1.84675,-15.6471252 -9.71875,-16.2031252 -0.5614996,-0.114 -1.1469686,-0.168609 -1.7304686,-0.162109 z"
           id="rect3767-0-7"
           inkscape:connector-curvature="0" /><circle
           style="fill:#0000ff"
           id="circle3385-9-5"
           r="4.507"
           cy="0.2348742"
           cx="8.6098309"
           inkscape:transform-center-x="15.760205"
           inkscape:transform-center-y="-21.011437" /><path
           id="path4735-0"
           d="m 31.288894,43.43963 -9.34189,4.521345 -3.608666,-7.456215 9.341894,-4.521344 3.608662,7.456214 z"
           style="fill:#0000ff"
           inkscape:connector-curvature="0" /><path
           id="path4737-0"
           d="m 29.024654,24.458224 7.715727,15.943362 -4.670551,2.260279 -7.716524,-15.942568 4.671348,-2.261073 z"
           style="fill:#0000ff"
           inkscape:connector-curvature="0" /><path
           id="path4739-3"
           d="m 23.57157,27.495469 3.609462,7.456211 -9.341889,4.521352 -3.609463,-7.455424 9.34189,-4.522139 z"
           style="fill:#0000ff"
           inkscape:connector-curvature="0" /><text
           xml:space="preserve"
           style="font-style:normal;font-weight:normal;font-size:12.5px;line-height:125%;font-family:Sans;letter-spacing:0px;word-spacing:0px;fill:#ececec;fill-opacity:1;stroke:none;stroke-width:1px;stroke-linecap:butt;stroke-linejoin:miter;stroke-opacity:1"
           x="4.5415134"
           y="21.25029"
           id="text4823"
           sodipodi:linespacing="125%"><tspan
             sodipodi:role="line"
             id="tspan4825"
             x="4.5415134"
             y="21.25029">1</tspan></text>
</g></g><g
       id="g5047"><path
         inkscape:connector-curvature="0"
         id="rect3767-0-7-8"
         d="m 51.63822,6.7288058 c -0.5835,0.0065 -1.165297,0.07313 -1.716797,0.203125 -7.493,0.8780002 -9.925281,9.5510622 -9.238281,16.1640622 0.298,2.859 4.804906,2.889 4.503906,0 -0.25,-2.41 -0.144281,-6.045859 1.136719,-8.630859 l 0,9.423828 c 0,0.111 0.01063,0.215265 0.01563,0.322266 -0.003,0.051 -0.01367,0.09448 -0.01367,0.146484 0,7.479 -0.01327,14.954734 -0.322266,22.427734 -0.137001,3.322 5.014391,3.309 5.150391,0 0.242,-5.857 0.302406,-11.717125 0.316406,-17.578125 0.244,0.016 0.488422,0.0159 0.732422,0.002 0.015,5.861 0.07445,11.721172 0.314453,17.576172 0.137,3.309 5.286438,3.322 5.148438,0 -0.309,-7.473 -0.318361,-14.948734 -0.31836,-22.427734 0,-0.232 -0.03111,-0.443485 -0.07813,-0.646484 -0.007,-3.247 -0.131749,-6.497188 -0.09375,-9.742188 1.534,2.597 1.674203,6.558 1.408203,9.125 -0.302,2.887 4.205907,2.858 4.503907,0 0.703,-6.75 -1.84675,-15.647125 -9.71875,-16.2031252 -0.5615,-0.114 -1.146969,-0.168609 -1.730469,-0.162109 z"
         style="fill:#ff0000;fill-opacity:1;stroke:#89a0ab;stroke-width:0;stroke-miterlimit:13.30000019;stroke-dasharray:none;stroke-opacity:1" /><circle
         inkscape:transform-center-y="-21.011437"
         inkscape:transform-center-x="15.760205"
         cx="51.79734"
         cy="0.23487425"
         r="4.507"
         id="circle3385-9-5-4"
         style="fill:#ff0000" /><path
         inkscape:connector-curvature="0"
         style="fill:#ff0000"
         d="m 74.476404,43.43963 -9.34189,4.521345 -3.608666,-7.456215 9.341894,-4.521344 3.608662,7.456214 z"
         id="path4735-0-6" /><path
         inkscape:connector-curvature="0"
         style="fill:#ff0000"
         d="m 72.212164,24.458224 7.715727,15.943362 -4.670551,2.260279 -7.716524,-15.942568 4.671348,-2.261073 z"
         id="path4737-0-5" /><path
         inkscape:connector-curvature="0"
         style="fill:#ff0000"
         d="m 66.75908,27.495469 3.609462,7.456211 -9.341889,4.521352 -3.609463,-7.455424 9.34189,-4.522139 z"
         id="path4739-3-1" /><text
         sodipodi:linespacing="125%"
         id="text4823-9"
         y="21.25029"
         x="47.826679"
         style="font-style:normal;font-weight:normal;font-size:12.5px;line-height:125%;font-family:Sans;letter-spacing:0px;word-spacing:0px;fill:#ececec;fill-opacity:1;stroke:none;stroke-width:1px;stroke-linecap:butt;stroke-linejoin:miter;stroke-opacity:1"
         xml:space="preserve"><tspan
           y="21.25029"
           x="47.826679"
           id="tspan4825-0"
           sodipodi:role="line">2</tspan></text>
</g><g
       id="g4982"><path
         inkscape:connector-curvature="0"
         id="rect3767-0-7-6"
         d="m -34.736788,6.7288059 c -0.5835,0.0065 -1.165297,0.07313 -1.716797,0.203125 -7.493,0.878 -9.925281,9.5510621 -9.238281,16.1640621 0.298,2.859 4.804906,2.889 4.503906,0 -0.25,-2.41 -0.144281,-6.045859 1.136719,-8.630859 l 0,9.423828 c 0,0.111 0.01063,0.215265 0.01563,0.322266 -0.003,0.051 -0.01367,0.09448 -0.01367,0.146484 0,7.479 -0.01327,14.954734 -0.322266,22.427734 -0.137001,3.322 5.014391,3.309 5.150391,0 0.242,-5.857 0.302406,-11.717125 0.316406,-17.578125 0.244,0.016 0.488422,0.0159 0.732422,0.002 0.015,5.861 0.07445,11.721172 0.314453,17.576172 0.137,3.309 5.286438,3.322 5.148438,0 -0.309,-7.473 -0.318361,-14.948734 -0.31836,-22.427734 0,-0.232 -0.03111,-0.443485 -0.07813,-0.646484 -0.007,-3.247 -0.131749,-6.497188 -0.09375,-9.742188 1.534,2.597 1.674203,6.558 1.408203,9.125 -0.302,2.887 4.205907,2.858 4.503907,0 0.703,-6.75 -1.84675,-15.6471251 -9.71875,-16.2031251 -0.5615,-0.114 -1.146969,-0.168609 -1.730469,-0.162109 z"
         style="fill:#008000;fill-opacity:1;stroke:#89a0ab;stroke-width:0;stroke-miterlimit:13.30000019;stroke-dasharray:none;stroke-opacity:1" /><circle
         inkscape:transform-center-y="-21.011437"
         inkscape:transform-center-x="15.760205"
         cx="-34.577667"
         cy="0.23487428"
         r="4.507"
         id="circle3385-9-5-9"
         style="fill:#008000" /><path
         inkscape:connector-curvature="0"
         style="fill:#008000"
         d="m -11.898604,43.43963 -9.34189,4.521345 -3.608666,-7.456215 9.341894,-4.521344 3.608662,7.456214 z"
         id="path4735-0-9" /><path
         inkscape:connector-curvature="0"
         style="fill:#008000"
         d="m -14.162844,24.458224 7.715727,15.943362 -4.670551,2.260279 -7.716524,-15.942568 4.671348,-2.261073 z"
         id="path4737-0-7" /><path
         inkscape:connector-curvature="0"
         style="fill:#008000"
         d="m -19.615928,27.495469 3.609462,7.456211 -9.341889,4.521352 -3.609463,-7.455424 9.34189,-4.522139 z"
         id="path4739-3-0" /><text
         sodipodi:linespacing="125%"
         id="text4823-3"
         y="21.25029"
         x="-38.468983"
         style="font-style:normal;font-weight:normal;font-size:12.5px;line-height:125%;font-family:Sans;letter-spacing:0px;word-spacing:0px;fill:#ececec;fill-opacity:1;stroke:none;stroke-width:1px;stroke-linecap:butt;stroke-linejoin:miter;stroke-opacity:1"
         xml:space="preserve"><tspan
           y="21.25029"
           x="-38.468983"
           id="tspan4825-2"
           sodipodi:role="line">0</tspan></text>
</g></g><g
     inkscape:groupmode="layer"
     id="layer1"
     inkscape:label="person"
     style="display:none"
     sodipodi:insensitive="true"
     transform="translate(53.72633,-5.2272902)"><g
       id="g3337"><circle
         cx="32.911999"
         cy="9.7340002"
         r="4.507"
         id="circle3339"
         style="fill:#0e0f0f" /><path
         d="m 34.482,16.39 c -1.123,-0.228 -2.344,-0.218 -3.447,0.042 -7.493,0.878 -9.926,9.551 -9.239,16.164 0.298,2.859 4.805,2.889 4.504,0 -0.25,-2.41 -0.143,-6.047 1.138,-8.632 0,3.142 0,6.284 0,9.425 0,0.111 0.011,0.215 0.016,0.322 -0.003,0.051 -0.015,0.094 -0.015,0.146 0,7.479 -0.013,14.955 -0.322,22.428 -0.137,3.322 5.014,3.309 5.15,0 0.242,-5.857 0.303,-11.717 0.317,-17.578 0.244,0.016 0.488,0.016 0.732,0.002 0.015,5.861 0.074,11.721 0.314,17.576 0.137,3.309 5.288,3.322 5.15,0 -0.309,-7.473 -0.32,-14.949 -0.32,-22.428 0,-0.232 -0.031,-0.443 -0.078,-0.646 -0.007,-3.247 -0.131,-6.497 -0.093,-9.742 1.534,2.597 1.674,6.558 1.408,9.125 -0.302,2.887 4.206,2.858 4.504,0 0.703,-6.75 -1.847,-15.648 -9.719,-16.204 z"
         id="path3341"
         inkscape:connector-curvature="0"
         style="fill:#0e0f0f" /></g></g><g
     inkscape:groupmode="layer"
     id="layer2"
     inkscape:label="blue"
     style="display:none"
     sodipodi:insensitive="true"
     transform="translate(53.72633,-5.2272902)"><g
       id="g3779"><g
         id="g3761"
         style="display:inline"><path
           style="fill:#0000ff;fill-opacity:1;stroke:#89a0ab;stroke-width:0;stroke-miterlimit:13.30000019;stroke-dasharray:none;stroke-opacity:1"
           d="m 84.850579,16.228221 c -0.5835,0.0065 -1.165297,0.07313 -1.716797,0.203125 -7.493,0.878 -9.925281,9.551062 -9.238281,16.164062 0.298,2.859 4.804906,2.889 4.503906,0 -0.25,-2.41 -0.144281,-6.045859 1.136719,-8.630859 l 0,9.423828 c 0,0.111001 0.01063,0.215265 0.01563,0.322266 -0.003,0.051 -0.01367,0.09448 -0.01367,0.146484 0,7.479 -0.01327,14.954734 -0.322266,22.427734 -0.137,3.322 5.014391,3.309 5.150391,0 0.242,-5.857 0.302406,-11.717125 0.316406,-17.578125 0.244,0.016 0.488422,0.0159 0.732422,0.002 0.015,5.861 0.07445,11.721172 0.314453,17.576172 0.137,3.309 5.286438,3.322001 5.148438,0 -0.309,-7.473 -0.318361,-14.948734 -0.31836,-22.427734 0,-0.232 -0.03111,-0.443484 -0.07813,-0.646484 -0.007,-3.247 -0.131749,-6.497188 -0.09375,-9.742188 1.534,2.597 1.674203,6.558 1.408203,9.125 -0.302,2.887 4.205907,2.858001 4.503907,0 0.703,-6.75 -1.84675,-15.647125 -9.71875,-16.203125 -0.5615,-0.114 -1.146969,-0.168609 -1.730469,-0.162109 z"
           id="rect3767-0-7-0"
           inkscape:connector-curvature="0" /><circle
           style="fill:#0000ff"
           id="circle3385-9-5-94"
           r="4.507"
           cy="9.7342901"
           cx="85.009697"
           inkscape:transform-center-x="15.760205"
           inkscape:transform-center-y="-21.011437" /></g><text
         sodipodi:linespacing="125%"
         id="text4823-2"
         y="30.749706"
         x="80.941383"
         style="font-style:normal;font-weight:normal;font-size:12.5px;line-height:125%;font-family:Sans;letter-spacing:0px;word-spacing:0px;fill:#ececec;fill-opacity:1;stroke:none;stroke-width:1px;stroke-linecap:butt;stroke-linejoin:miter;stroke-opacity:1"
         xml:space="preserve"><tspan
           y="30.749706"
           x="80.941383"
           id="tspan4825-3"
           sodipodi:role="line">1</tspan></text>
</g></g><g
     inkscape:groupmode="layer"
     id="layer3"
     inkscape:label="green"
     style="display:none"
     sodipodi:insensitive="true"
     transform="translate(53.72633,-5.2272902)"><g
       id="g5308"><path
         inkscape:connector-curvature="0"
         id="rect3767-0-7-6-2"
         d="m -19.149421,16.228511 c -0.5835,0.0065 -1.165297,0.07313 -1.716797,0.203125 -7.493,0.878 -9.925281,9.551062 -9.238281,16.164062 0.298,2.859 4.804906,2.889 4.503906,0 -0.25,-2.41 -0.144281,-6.045859 1.136719,-8.630859 l 0,9.423828 c 0,0.111 0.01063,0.215265 0.01563,0.322266 -0.003,0.051 -0.01367,0.09448 -0.01367,0.146484 0,7.479 -0.01327,14.954734 -0.322266,22.427734 -0.137001,3.322 5.014391,3.309 5.150391,0 0.242,-5.857 0.302406,-11.717125 0.316406,-17.578125 0.244,0.016 0.488422,0.0159 0.732422,0.002 0.015,5.861 0.07445,11.721172 0.314453,17.576172 0.137,3.309 5.286438,3.322 5.148438,0 -0.309,-7.473 -0.318361,-14.948734 -0.31836,-22.427734 0,-0.232 -0.03111,-0.443485 -0.07813,-0.646484 -0.007,-3.247 -0.131749,-6.497188 -0.09375,-9.742188 1.534,2.597 1.674203,6.558 1.408203,9.125 -0.302,2.887 4.205907,2.858 4.503907,0 0.703,-6.75 -1.84675,-15.647125 -9.71875,-16.203125 -0.5615,-0.114 -1.146969,-0.168609 -1.730469,-0.162109 z"
         style="fill:#008000;fill-opacity:1;stroke:#89a0ab;stroke-width:0;stroke-miterlimit:13.30000019;stroke-dasharray:none;stroke-opacity:1" /><circle
         inkscape:transform-center-y="-21.011437"
         inkscape:transform-center-x="15.760205"
         cx="-18.990301"
         cy="9.7345791"
         r="4.507"
         id="circle3385-9-5-9-4"
         style="fill:#008000" /><text
         sodipodi:linespacing="125%"
         id="text4823-3-8"
         y="30.749994"
         x="-22.881617"
         style="font-style:normal;font-weight:normal;font-size:12.5px;line-height:125%;font-family:Sans;letter-spacing:0px;word-spacing:0px;fill:#ececec;fill-opacity:1;stroke:none;stroke-width:1px;stroke-linecap:butt;stroke-linejoin:miter;stroke-opacity:1"
         xml:space="preserve"><tspan
           y="30.749994"
           x="-22.881617"
           id="tspan4825-2-7"
           sodipodi:role="line">0</tspan></text>
</g></g><g
     inkscape:groupmode="layer"
     id="layer9"
     inkscape:label="package right"
     style="display:none"
     sodipodi:insensitive="true"
     transform="translate(53.72633,-5.2272902)"><g
       id="g3564"
       style="display:inline;fill:#ff6600"
       transform="matrix(1.1000003,0,0,1.1000003,57.4493,1.1471157)"><path
         id="path3562"
         d="m 45.61089,48.257268 -8.492625,4.110312 -3.280604,-6.778375 8.492628,-4.110312 3.280601,6.778375 z"
         style="fill:#ff6600"
         inkscape:connector-curvature="0" /><path
         id="path3560"
         d="m 43.552491,31.001449 7.014295,14.493961 -4.245954,2.054799 -7.01502,-14.49324 4.246679,-2.05552 z"
         style="fill:#ff6600"
         inkscape:connector-curvature="0" /><path
         id="path3554"
         d="m 38.595143,33.76258 3.281328,6.778372 -8.492624,4.110319 -3.281329,-6.777657 8.492625,-4.111034 z"
         style="fill:#ff6600"
         inkscape:connector-curvature="0" /></g></g><g
     inkscape:groupmode="layer"
     id="layer12"
     inkscape:label="receipt"
     style="display:none"
     sodipodi:insensitive="true"
     transform="translate(53.72633,-5.2272902)"><path
       inkscape:connector-curvature="0"
       d="m 5.3423797,28.663549 -6.5231843,12.168528 -3.5013358,-1.48623 -1.221035,2.876578 c -0.6734766,1.586613 0.068931,3.424136 1.6555428,4.097613 L 6.108047,50.715763 c 1.5866164,0.673478 3.4241364,-0.06893 4.07678,-1.612659 L 17.994826,34.034196 5.3423797,28.663549 Z m -9.1015983,16.505858 c -0.9528679,-0.404469 -1.3973207,-1.506816 -0.9933256,-2.458568 l 0.7326208,-1.725946 9.2050482,3.907311 -0.7326207,1.725947 C 4.1777726,47.265377 4.1375362,47.953799 4.2951989,48.588304 L -3.7592186,45.169407 Z M 9.0550288,48.571806 C 8.6510284,49.523557 7.5470617,49.968638 6.5964613,49.565131 5.6435977,49.160665 5.1991404,48.058316 5.6031354,47.106565 L 6.8241701,44.229986 -0.0256785,41.322399 5.9057152,30.260622 16.263658,34.657307 9.0550288,48.571806 Z m 2.0180642,-9.328009 -5.8228053,-2.471636 0.5940531,-1.105791 5.8048642,2.464019 -0.57611,1.113408 z m 1.152115,-2.226858 -5.7891129,-2.457334 0.5940564,-1.105788 5.7733635,2.450648 -0.578311,1.112471 z M 5.316218,39.516047 4.0644389,38.9847 4.6562295,37.877947 5.8922577,38.402611 5.3162209,39.516047 Z m 1.6412734,-0.66127 2.3866591,1.013077 -0.5760826,1.113417 -2.4024063,-1.019761 0.5918252,-1.106735 z"
       id="path5378"
       style="fill:#ff5555" /></g><g
     inkscape:groupmode="layer"
     id="layer8"
     inkscape:label="package left"
     style="display:none"
     sodipodi:insensitive="true"
     transform="translate(53.72633,-5.2272902)"><g
       transform="matrix(-1.1000003,0,0,1.1000003,49.247106,-5.9778843)"
       style="fill:#ff6600"
       id="g3704"><path
         inkscape:connector-curvature="0"
         style="fill:#ff6600"
         d="m 45.61089,48.257268 -8.492625,4.110312 -3.280604,-6.778375 8.492628,-4.110312 3.280601,6.778375 z"
         id="path3706" /><path
         inkscape:connector-curvature="0"
         style="fill:#ff6600"
         d="m 43.552491,31.001449 7.014295,14.493961 -4.245954,2.054799 -7.01502,-14.49324 4.246679,-2.05552 z"
         id="path3708" /><path
         inkscape:connector-curvature="0"
         style="fill:#ff6600"
         d="m 38.595143,33.76258 3.281328,6.778372 -8.492624,4.110319 -3.281329,-6.777657 8.492625,-4.111034 z"
         id="path3710" /></g></g><g
     style="display:none"
     inkscape:label="package leftmost"
     id="g5467"
     inkscape:groupmode="layer"
     sodipodi:insensitive="true"
     transform="translate(53.72633,-5.2272902)"><g
       id="g5469"
       style="display:inline;fill:#ff6600"
       transform="matrix(-1.1000003,0,0,1.1000003,8.747106,0.8971157)"><path
         id="path5471"
         d="m 45.61089,48.257268 -8.492625,4.110312 -3.280604,-6.778375 8.492628,-4.110312 3.280601,6.778375 z"
         style="fill:#ff6600"
         inkscape:connector-curvature="0" /><path
         id="path5473"
         d="m 43.552491,31.001449 7.014295,14.493961 -4.245954,2.054799 -7.01502,-14.49324 4.246679,-2.05552 z"
         style="fill:#ff6600"
         inkscape:connector-curvature="0" /><path
         id="path5475"
         d="m 38.595143,33.76258 3.281328,6.778372 -8.492624,4.110319 -3.281329,-6.777657 8.492625,-4.111034 z"
         style="fill:#ff6600"
         inkscape:connector-curvature="0" /></g></g><g
     inkscape:groupmode="layer"
     id="layer5"
     inkscape:label="blocking synchronous"
     style="display:inline"
     transform="translate(53.72633,-5.2272902)"
     sodipodi:insensitive="true"><use
       height="100%"
       width="100%"
       id="use3821"
       xlink:href="#g5308"
       y="0"
       x="0"
       style="display:inline" /><g
       style="display:inline"
       inkscape:label="receipt"
       id="g3855"
       inkscape:groupmode="layer"
       sodipodi:insensitive="true"><use
         height="100%"
         width="100%"
         id="use3859"
         xlink:href="#g5496"
         y="0"
         x="0"
         style="display:inline" /><use
         style="display:inline"
         x="0"
         y="0"
         xlink:href="#path5378"
         id="use3861"
         width="100%"
         height="100%" /></g><g
       inkscape:groupmode="layer"
       id="layer13"
       inkscape:label="received"
       style="display:none"
       sodipodi:insensitive="true"><use
         style="display:inline"
         x="0"
         y="0"
         xlink:href="#g3564"
         id="use3852"
         width="100%"
         height="100%" /><use
         style="display:inline"
         x="0"
         y="0"
         xlink:href="#g3493"
         id="use3502"
         width="100%"
         height="100%" /></g><g
       inkscape:groupmode="layer"
       id="g3828"
       inkscape:label="transit"
       style="display:none"
       sodipodi:insensitive="true"><use
         style="display:inline"
         x="0"
         y="0"
         xlink:href="#g5424"
         id="use3837"
         width="100%"
         height="100%" /><use
         style="display:inline"
         x="0"
         y="0"
         xlink:href="#g3840"
         id="use3845"
         width="100%"
         height="100%" /></g><g
       style="display:none"
       inkscape:label="dropoff"
       id="g3817"
       inkscape:groupmode="layer"
       sodipodi:insensitive="true"><use
         height="100%"
         width="100%"
         id="use3823"
         xlink:href="#g5496"
         y="0"
         x="0"
         style="display:inline" /><use
         style="display:inline"
         x="0"
         y="0"
         xlink:href="#g3704"
         id="use3825"
         width="100%"
         height="100%" /></g><g
       inkscape:groupmode="layer"
       id="layer6"
       inkscape:label="ready"
       style="display:none"
       sodipodi:insensitive="true"><use
         style="display:inline"
         x="0"
         y="0"
         xlink:href="#g5469"
         id="use3791"
         width="100%"
         height="100%" /><use
         style="display:inline"
         x="0"
         y="0"
         xlink:href="#g5496"
         id="use3814"
         width="100%"
         height="100%" /></g><use
       style="display:inline"
       x="0"
       y="0"
       xlink:href="#g3779"
       id="use3808"
       width="100%"
       height="100%" /></g><g
     style="display:none"
     inkscape:label="non-blocking synchronous"
     id="g3864"
     inkscape:groupmode="layer"
     transform="translate(53.72633,-5.2272902)"
     sodipodi:insensitive="true"><g
       style="display:none"
       inkscape:label="received"
       id="g3874"
       inkscape:groupmode="layer"
       sodipodi:insensitive="true"><use
         height="100%"
         width="100%"
         id="use3878"
         xlink:href="#g3564"
         y="0"
         x="0"
         style="display:inline" /><use
         style="display:inline"
         x="0"
         y="0"
         xlink:href="#use3904"
         id="use3907"
         width="100%"
         height="100%" /><use
         style="display:inline"
         x="0"
         y="0"
         xlink:href="#use3502"
         id="use3505"
         width="100%"
         height="100%" /></g><g
       style="display:none"
       inkscape:label="transit"
       id="g3880"
       inkscape:groupmode="layer"
       sodipodi:insensitive="true"><use
         height="100%"
         width="100%"
         id="use3882"
         xlink:href="#g5424"
         y="0"
         x="0"
         style="display:inline" /><use
         height="100%"
         width="100%"
         id="use3884"
         xlink:href="#g3840"
         y="0"
         x="0"
         style="display:inline" /><use
         style="display:inline"
         x="0"
         y="0"
         xlink:href="#g5325"
         id="use3904"
         width="100%"
         height="100%" /></g><g
       inkscape:groupmode="layer"
       id="g3886"
       inkscape:label="dropoff"
       style="display:none"
       sodipodi:insensitive="true"><use
         style="display:inline"
         x="0"
         y="0"
         xlink:href="#g5496"
         id="use3888"
         width="100%"
         height="100%" /><use
         height="100%"
         width="100%"
         id="use3890"
         xlink:href="#g3704"
         y="0"
         x="0"
         style="display:inline" /><use
         style="display:inline"
         x="0"
         y="0"
         xlink:href="#use3866"
         id="use3901"
         width="100%"
         height="100%" /></g><g
       style="display:none"
       inkscape:label="ready"
       id="g3892"
       inkscape:groupmode="layer"
       sodipodi:insensitive="true"><use
         height="100%"
         width="100%"
         id="use3894"
         xlink:href="#g5469"
         y="0"
         x="0"
         style="display:inline" /><use
         height="100%"
         width="100%"
         id="use3896"
         xlink:href="#g5496"
         y="0"
         x="0"
         style="display:inline" /><use
         style="display:inline"
         x="0"
         y="0"
         xlink:href="#g5308"
         id="use3866"
         width="100%"
         height="100%" /></g><use
       height="100%"
       width="100%"
       id="use3898"
       xlink:href="#g3779"
       y="0"
       x="0"
       style="display:inline" /></g><g
     inkscape:groupmode="layer"
     id="g3910"
     inkscape:label="non-blocking asynchronous"
     style="display:none"
     transform="translate(53.72633,-5.2272902)"><g
       inkscape:groupmode="layer"
       id="g4917"
       inkscape:label="receipt"
       style="display:none"
       sodipodi:insensitive="true"><use
         style="display:inline"
         x="0"
         y="0"
         xlink:href="#g5496"
         id="use4919"
         width="100%"
         height="100%" /><use
         height="100%"
         width="100%"
         id="use4921"
         xlink:href="#use3926"
         y="0"
         x="0"
         style="display:inline" /><use
         style="display:inline"
         x="0"
         y="0"
         xlink:href="#path5378"
         id="use4933"
         width="100%"
         height="100%" /></g><g
       inkscape:groupmode="layer"
       id="g3912"
       inkscape:label="received"
       style="display:inline"
       sodipodi:insensitive="true"><use
         style="display:inline"
         x="0"
         y="0"
         xlink:href="#g3564"
         id="use3916"
         width="100%"
         height="100%" /><use
         height="100%"
         width="100%"
         id="use3918"
         xlink:href="#use3904"
         y="0"
         x="0"
         style="display:inline" /><use
         style="display:inline"
         x="0"
         y="0"
         xlink:href="#g3493"
         id="use3499"
         width="100%"
         height="100%" /></g><g
       inkscape:groupmode="layer"
       id="g3920"
       inkscape:label="transit"
       style="display:none"
       sodipodi:insensitive="true"><use
         style="display:inline"
         x="0"
         y="0"
         xlink:href="#g5424"
         id="use3922"
         width="100%"
         height="100%" /><use
         style="display:inline"
         x="0"
         y="0"
         xlink:href="#g3840"
         id="use3924"
         width="100%"
         height="100%" /><use
         height="100%"
         width="100%"
         id="use3926"
         xlink:href="#g5325"
         y="0"
         x="0"
         style="display:inline" /></g><g
       style="display:none"
       inkscape:label="dropoff"
       id="g3928"
       inkscape:groupmode="layer"
       sodipodi:insensitive="true"><use
         height="100%"
         width="100%"
         id="use3930"
         xlink:href="#g5496"
         y="0"
         x="0"
         style="display:inline" /><use
         style="display:inline"
         x="0"
         y="0"
         xlink:href="#use3926"
         id="use4909"
         width="100%"
         height="100%" /><g
         style="display:inline;opacity:1;filter:url(#filter5917)"
         id="g5805"
         transform="translate(-42.00036,-53.07921)"><path
           inkscape:connector-curvature="0"
           style="fill:#ff6600"
           d="m 26.796112,75.53785 0.05426,17.71215 5.188704,-0.0159 -0.0532,-17.71179 -5.189769,0.0156 z"
           id="path5633" /><g
           transform="translate(4.625,-32.16771)"
           id="g5801"><path
             id="path5631"
             d="m 28.456928,125.41771 10.378462,-0.0315 -0.02514,-8.28353 -10.378465,0.0314 0.02515,8.28354 z"
             style="fill:#ff6600"
             inkscape:connector-curvature="0" /><path
             id="path5635"
             d="m 28.403752,107.70414 0.02443,8.28388 10.378464,-0.0315 -0.02408,-8.28317 -10.378811,0.0307 z"
             style="fill:#ff6600"
             inkscape:connector-curvature="0" /></g></g></g><g
       sodipodi:insensitive="true"
       inkscape:groupmode="layer"
       id="g3936"
       inkscape:label="ready"
       style="display:none"><use
         style="display:inline"
         x="0"
         y="0"
         xlink:href="#g5469"
         id="use3938"
         width="100%"
         height="100%" /><use
         style="display:inline"
         x="0"
         y="0"
         xlink:href="#g5496"
         id="use3940"
         width="100%"
         height="100%" /><use
         height="100%"
         width="100%"
         id="use3942"
         xlink:href="#g5308"
         y="0"
         x="0"
         style="display:inline" /></g><use
       style="display:inline"
       x="0"
       y="0"
       xlink:href="#g3779"
       id="use3944"
       width="100%"
       height="100%" /><path
       inkscape:connector-curvature="0"
       d="m 2.3193732,40.178446 -18.3829762,0 0,2.297872 4.796042,0 c -0.0069,0.04558 -0.0157,0.09077 -0.0157,0.137107 0,0.378 0.234766,0.62885 0.638042,1.011829 l -0.0038,0 c 0,0 0.02106,0.03715 0.05668,0.06166 0.04366,0.03141 0.08617,0.0743 0.133276,0.104553 0.4829352,0.341617 1.7938722,1.322809 2.7497862,2.514638 l -0.694723,0 0,10.723404 -1.9148942,0 0,1.148936 7.6595742,0 0,-1.148936 -1.914893,0 0,-10.723404 -0.618894,0 c 0.666766,-0.890425 1.553744,-1.883872 2.646766,-2.68085 l -7.92e-4,0 c 0.364595,-0.293362 0.573319,-0.63 0.573319,-0.988468 0,-0.05438 -0.0088,-0.107234 -0.01838,-0.160469 l 4.311575,0 0,-2.297872 z"
       id="path4886"
       style="fill:#008000" /></g></svg>